<?xml version="1.0" encoding="UTF-8" standalone="no"?> <svg id="cleanup" xmlns="http://www.w3.org/2000/svg" viewBox="0 0 64 64"><path d="M58.474,27.474A4.5,4.5,0,0,0,56.8,27.8a8,8,0,0,0-3.859-3.231,2.927,2.927,0,0,0-.7-2.551,7.937,7.937,0,0,0,.265-4.589A4.525,4.525,0,1,0,46.568,11.5a8.009,8.009,0,0,0-5.009.443,3.041,3.041,0,0,0-.367-.446,2.957,2.957,0,0,0-1.92-.831A8.006,8.006,0,0,0,36.2,7.2a4.526,4.526,0,1,0-8.394,0,7.986,7.986,0,0,0-3.23,3.859A3.009,3.009,0,0,0,24,11a2.977,2.977,0,0,0-1.979.763,7.929,7.929,0,0,0-4.589-.265,4.469,4.469,0,0,0-.952-1.418A4.526,4.526,0,1,0,11.5,17.431a8,8,0,0,0,.445,5.012,2.925,2.925,0,0,0-1.307,2.3A7.988,7.988,0,0,0,7.2,27.8a4.484,4.484,0,0,0-1.674-.33A4.526,4.526,0,1,0,7.2,36.2a8,8,0,0,0,3.859,3.231,2.927,2.927,0,0,0,.705,2.551,7.938,7.938,0,0,0-.265,4.589A4.526,4.526,0,1,0,17.432,52.5a7.886,7.886,0,0,0,5.014-.437,2.943,2.943,0,0,0,2.294,1.3A8.008,8.008,0,0,0,27.8,56.8a4.526,4.526,0,1,0,8.394,0,7.986,7.986,0,0,0,3.23-3.859A3.009,3.009,0,0,0,40,53a2.973,2.973,0,0,0,1.982-.766,7.768,7.768,0,0,0,4.586.268A4.52,4.52,0,0,0,53.92,53.92,4.508,4.508,0,0,0,52.5,46.569a8.011,8.011,0,0,0-.444-5.012,3.011,3.011,0,0,0,.447-.365,2.969,2.969,0,0,0,.859-1.932A7.988,7.988,0,0,0,56.8,36.2a4.484,4.484,0,0,0,1.674.33,4.526,4.526,0,1,0,0-9.052ZM51,24a1,1,0,1,1-1-1A1,1,0,0,1,51,24ZM48.934,11.494a2.526,2.526,0,1,1,0,3.572A2.515,2.515,0,0,1,48.934,11.494Zm-8.863,2.121a.989.989,0,0,1-.293.707h0a1.021,1.021,0,0,1-1.414,0,1,1,0,1,1,1.707-.707ZM32,3a2.526,2.526,0,1,1-2.526,2.526A2.529,2.529,0,0,1,32,3ZM24,13a1,1,0,1,1-1,1A1,1,0,0,1,24,13ZM11.494,11.494a2.526,2.526,0,1,1,0,3.572A2.517,2.517,0,0,1,11.494,11.494Zm2.828,12.728a1,1,0,1,1-.707-.292A1,1,0,0,1,14.322,24.222ZM3,32a2.526,2.526,0,1,1,2.526,2.526A2.529,2.529,0,0,1,3,32Zm10,8a1,1,0,1,1,1,1A1,1,0,0,1,13,40Zm2.066,12.506a2.525,2.525,0,1,1,0-3.572A2.528,2.528,0,0,1,15.066,52.506Zm8.863-2.121a.989.989,0,0,1,.293-.707h0a1,1,0,1,1,1.413,1.414,1.021,1.021,0,0,1-1.413,0A.985.985,0,0,1,23.929,50.385ZM32,61a2.526,2.526,0,1,1,2.526-2.526A2.529,2.529,0,0,1,32,61Zm8-10a1,1,0,1,1,1-1A1,1,0,0,1,40,51Zm12.506,1.506a2.525,2.525,0,1,1,0-3.572A2.528,2.528,0,0,1,52.506,52.506ZM49.678,39.778a1,1,0,1,1,1.414,0A1,1,0,0,1,49.678,39.778ZM52.8,37.305a3.049,3.049,0,0,0-.29-.356,3,3,0,0,0-4.242,4.243h0a2.972,2.972,0,0,0,1.817.847,5.992,5.992,0,0,1,.457,4.174,4.467,4.467,0,0,0-4.324,4.321,5.941,5.941,0,0,1-3.26-.083A2.921,2.921,0,0,0,43,50a3,3,0,0,0-6,0,2.97,2.97,0,0,0,.687,1.887,5.986,5.986,0,0,1-2.628,3.273,4.467,4.467,0,0,0-6.116,0A5.991,5.991,0,0,1,26.7,52.8a3.038,3.038,0,0,0,.354-.291,3,3,0,0,0,0-4.242,3.073,3.073,0,0,0-4.243,0h0a2.964,2.964,0,0,0-.85,1.818,6,6,0,0,1-4.172.456,4.467,4.467,0,0,0-4.321-4.324,5.932,5.932,0,0,1,.083-3.26A2.921,2.921,0,0,0,14,43a3,3,0,0,0,0-6,2.968,2.968,0,0,0-1.887.687A5.982,5.982,0,0,1,8.84,35.059a4.465,4.465,0,0,0,0-6.116A6,6,0,0,1,11.2,26.7a3.049,3.049,0,0,0,.29.356,3,3,0,0,0,4.242-4.243h0a2.972,2.972,0,0,0-1.817-.847,5.992,5.992,0,0,1-.457-4.174,4.467,4.467,0,0,0,4.324-4.321,5.941,5.941,0,0,1,3.26.083A2.921,2.921,0,0,0,21,14a3,3,0,0,0,6,0,2.97,2.97,0,0,0-.687-1.887A5.986,5.986,0,0,1,28.941,8.84a4.467,4.467,0,0,0,6.116,0,5.99,5.99,0,0,1,2.249,2.364,2.786,2.786,0,0,0-.356.288,3,3,0,0,0,4.242,4.243h0a2.969,2.969,0,0,0,.85-1.817,6,6,0,0,1,4.172-.457,4.467,4.467,0,0,0,4.321,4.324,5.932,5.932,0,0,1-.083,3.26A2.921,2.921,0,0,0,50,21a3,3,0,0,0,0,6,2.968,2.968,0,0,0,1.887-.687,5.982,5.982,0,0,1,3.273,2.628,4.465,4.465,0,0,0,0,6.116A6,6,0,0,1,52.8,37.305Zm5.678-2.779A2.526,2.526,0,1,1,61,32,2.529,2.529,0,0,1,58.474,34.526Z"/><path d="M32,18c-5.047,0-9,2.416-9,5.5,0,.052.01.1.012.153H23v17h.012a3.8,3.8,0,0,0,.6,1.876C24.925,44.637,28.217,46,32,46s7.075-1.363,8.383-3.462A3.8,3.8,0,0,0,41,40.5v-17C41,20.416,37.047,18,32,18Zm6.691,23.471C37.764,42.96,35.013,44,32,44s-5.764-1.04-6.7-2.538A1.781,1.781,0,0,1,25,40.5V37.991c.164.122.334.242.517.355A12.5,12.5,0,0,0,32,40a12.5,12.5,0,0,0,6.479-1.651c.184-.115.356-.235.521-.359V40.5A1.791,1.791,0,0,1,38.691,41.471Zm-1.274-4.817A10.474,10.474,0,0,1,32,38a10.477,10.477,0,0,1-5.422-1.349C25.989,36.284,25,35.517,25,34.5V32.984A11.924,11.924,0,0,0,32,35a11.926,11.926,0,0,0,7-2.016V34.5C39,35.517,38.011,36.284,37.417,36.654Zm.588-5.418A9.615,9.615,0,0,1,32,33a9.616,9.616,0,0,1-6-1.763A2.452,2.452,0,0,1,25,29.5V26.993A11.833,11.833,0,0,0,32,29a11.833,11.833,0,0,0,7-2.007V29.5A2.45,2.45,0,0,1,38.005,31.236ZM32,27c-4.125,0-7-1.845-7-3.5S27.875,20,32,20s7,1.845,7,3.5S36.125,27,32,27Z"/></svg>