<?xml version="1.0" encoding="iso-8859-1"?>
<!-- Generator: Adobe Illustrator 19.0.0, SVG Export Plug-In . SVG Version: 6.00 Build 0)  -->
<svg version="1.1" id="Layer_1" xmlns="http://www.w3.org/2000/svg" xmlns:xlink="http://www.w3.org/1999/xlink" x="0px" y="0px"
	 viewBox="0 0 511.999 511.999" style="enable-background:new 0 0 511.999 511.999;" xml:space="preserve">
<g>
	<g>
		<path fill="currentColor" d="M511.327,237.582c-4.023-56.995-26.691-110.312-65.057-152.841c-0.005-0.005-0.01-0.013-0.014-0.018
			c-0.014-0.015-0.028-0.031-0.042-0.046c-1.414-1.567-2.85-3.118-4.306-4.655c-0.084-0.088-0.165-0.18-0.248-0.268
			c-1.529-1.608-3.078-3.201-4.653-4.777c-1.38-1.38-2.776-2.739-4.185-4.085c-0.78-0.745-1.571-1.475-2.358-2.211
			c-0.567-0.527-1.13-1.059-1.701-1.581c-1.171-1.074-2.355-2.13-3.544-3.18c-0.097-0.085-0.193-0.172-0.29-0.257
			C378.193,22.501,318.826,0,255.994,0C199.61,0,146.018,18.121,101.84,51.583c-0.214,0.161-0.425,0.324-0.637,0.486
			c-1.281,0.977-2.557,1.964-3.823,2.966c-0.432,0.342-0.86,0.689-1.29,1.034c-1.078,0.865-2.153,1.735-3.22,2.62
			c-0.605,0.501-1.203,1.012-1.803,1.519c-0.908,0.767-1.818,1.534-2.717,2.314c-0.757,0.658-1.505,1.328-2.256,1.996
			c-0.75,0.667-1.503,1.327-2.245,2.003c-0.933,0.849-1.854,1.715-2.775,2.579c-0.562,0.527-1.131,1.045-1.689,1.578
			c-1.482,1.414-2.952,2.846-4.404,4.299c-1.453,1.453-2.883,2.921-4.298,4.403c-0.538,0.564-1.061,1.139-1.594,1.706
			c-0.858,0.915-1.717,1.827-2.56,2.754c-0.682,0.75-1.349,1.509-2.022,2.265c-0.661,0.744-1.326,1.485-1.979,2.236
			c-0.787,0.904-1.557,1.819-2.33,2.733c-0.501,0.594-1.007,1.186-1.503,1.784c-0.89,1.072-1.765,2.155-2.636,3.24
			c-0.339,0.423-0.68,0.843-1.016,1.267c-1.007,1.271-1.997,2.551-2.978,3.838c-0.158,0.208-0.318,0.415-0.475,0.624
			c-33.464,44.18-51.588,97.774-51.588,154.161c0,62.832,22.5,122.198,63.661,168.93c0.087,0.099,0.174,0.197,0.262,0.296
			c1.049,1.188,2.105,2.37,3.177,3.54c0.521,0.57,1.052,1.132,1.578,1.697c0.736,0.789,1.467,1.581,2.213,2.361
			c1.346,1.409,2.706,2.806,4.085,4.187c1.573,1.573,3.166,3.121,4.773,4.649c0.086,0.082,0.175,0.161,0.261,0.243
			c1.542,1.462,3.099,2.903,4.672,4.322c0.015,0.013,0.029,0.027,0.044,0.04c0.009,0.008,0.018,0.014,0.027,0.022
			c42.127,37.999,94.838,60.595,151.223,64.927c0.056,0.004,0.11,0.01,0.166,0.014c1.433,0.109,2.871,0.195,4.309,0.281
			c5.244,0.321,10.487,0.501,15.721,0.501c10.505,0,20.974-0.654,31.357-1.935c0.113-0.014,0.227-0.028,0.34-0.041
			c1.948-0.243,3.895-0.501,5.836-0.789c0.496-0.073,0.989-0.156,1.485-0.232c1.118-0.172,2.236-0.35,3.352-0.537
			c1.089-0.181,2.175-0.369,3.259-0.564c0.069-0.012,0.137-0.025,0.206-0.038c50.859-9.182,97.675-33.543,134.993-70.862
			c37.311-37.311,61.671-84.116,70.855-134.964c0.01-0.057,0.021-0.112,0.032-0.169c0.267-1.485,0.518-2.974,0.76-4.465
			c0.114-0.698,0.228-1.397,0.337-2.098c0.154-0.999,0.299-2,0.44-3.002c0.177-1.239,0.344-2.479,0.503-3.72
			c0.072-0.566,0.142-1.132,0.209-1.699c0.209-1.729,0.4-3.46,0.573-5.193c0.015-0.156,0.032-0.312,0.047-0.467
			C512.181,266.776,512.386,252.18,511.327,237.582z M437.035,98.969c25.889,29.76,43.742,64.912,52.463,102.789l-67.627,67.626
			c-1.253,1.253-2.325,2.628-3.215,4.092l-62.811-9.948c-0.393-1.666-0.988-3.306-1.793-4.884L311.485,175.1
			c-0.804-1.579-1.782-3.024-2.899-4.322l28.874-56.672c0.588,0.049,1.181,0.081,1.777,0.081c1.131,0,2.273-0.088,3.418-0.27
			L437.035,98.969z M338.517,272.206l-66.301,66.301c-1.626,1.626-4.093,2.018-6.143,0.973l-83.545-42.568
			c-2.049-1.043-3.183-3.27-2.823-5.541l14.668-92.609v-0.001c0.36-2.27,2.127-4.037,4.397-4.397l92.609-14.668
			c0.28-0.045,0.559-0.067,0.836-0.067c1.966,0,3.791,1.093,4.705,2.889l42.567,83.545
			C340.533,268.112,340.142,270.58,338.517,272.206z M418.444,79.827c0.725,0.67,1.453,1.337,2.171,2.017
			c0.476,0.45,0.948,0.907,1.421,1.361c0.47,0.452,0.935,0.911,1.401,1.368L340.1,97.772c-2.275,0.361-4.498-0.775-5.541-2.822
			l-38.314-75.195C341.76,27.517,384.405,48.46,418.444,79.827z M147.66,129.666l14.969-94.509
			c29.152-12.33,60.758-18.811,93.365-18.811c6.925,0,13.801,0.31,20.621,0.887l43.38,85.138c0.804,1.578,1.788,3.013,2.904,4.31
			l-28.877,56.677c-1.706-0.142-3.45-0.082-5.2,0.195l-92.609,14.667c-1.75,0.277-3.426,0.76-5.005,1.421l-44.97-44.97
			C146.9,133.092,147.382,131.416,147.66,129.666z M65.099,111.076c0.24-0.314,0.477-0.629,0.718-0.943
			c0.676-0.878,1.359-1.751,2.047-2.621c0.464-0.585,0.933-1.168,1.402-1.75c0.578-0.716,1.154-1.433,1.74-2.143
			c1.041-1.259,2.092-2.512,3.16-3.752c0.327-0.379,0.661-0.753,0.991-1.13c0.868-0.996,1.743-1.989,2.629-2.972
			c0.405-0.45,0.815-0.897,1.224-1.344c0.873-0.953,1.753-1.901,2.644-2.844c0.363-0.385,0.724-0.77,1.09-1.152
			c1.251-1.308,2.513-2.607,3.796-3.89c1.285-1.285,2.586-2.549,3.896-3.802c0.377-0.361,0.757-0.717,1.137-1.074
			c0.95-0.897,1.906-1.785,2.868-2.665c0.438-0.401,0.876-0.802,1.317-1.2c1.006-0.907,2.02-1.801,3.039-2.689
			c0.354-0.308,0.705-0.623,1.061-0.931c1.252-1.079,2.516-2.139,3.787-3.19c0.683-0.563,1.373-1.118,2.062-1.674
			c0.615-0.497,1.23-0.992,1.849-1.482c0.845-0.668,1.692-1.332,2.546-1.989c0.35-0.269,0.703-0.535,1.054-0.803
			c10.584-8.048,21.795-15.186,33.576-21.358l-13.215,83.428c-0.36,2.271-2.127,4.037-4.398,4.398l-83.43,13.214
			C49.873,132.914,57.028,121.68,65.099,111.076z M16.35,255.989c0-32.608,6.482-64.216,18.813-93.369l94.512-14.97
			c1.75-0.277,3.426-0.76,5.005-1.421l44.97,44.97c-0.661,1.579-1.144,3.256-1.421,5.006l-14.668,92.609
			c-0.277,1.75-0.336,3.493-0.195,5.199l-56.666,28.871c-1.298-1.117-2.743-2.094-4.322-2.899l-85.143-43.382
			C16.66,269.784,16.35,262.911,16.35,255.989z M97.782,340.09l-13.2,83.346c-0.457-0.467-0.916-0.933-1.37-1.404
			c-0.454-0.473-0.911-0.944-1.361-1.42c-0.684-0.722-1.356-1.454-2.03-2.184c-31.364-34.041-52.304-76.683-60.064-122.197
			l75.201,38.316C97.007,335.593,98.142,337.82,97.782,340.09z M98.978,437.033l14.949-94.386c0.277-1.75,0.337-3.494,0.195-5.2
			l56.666-28.871c1.298,1.117,2.743,2.094,4.322,2.899l83.544,42.567c1.579,0.804,3.219,1.399,4.885,1.793l9.947,62.811
			c-1.463,0.889-2.839,1.961-4.092,3.215l-67.631,67.632C163.887,480.772,128.737,462.921,98.978,437.033z M295.4,492.413
			c-0.985,0.162-1.971,0.325-2.96,0.474c-0.578,0.088-1.156,0.173-1.734,0.257c-11.398,1.644-22.99,2.489-34.713,2.489
			c-5.73,0-11.426-0.208-17.086-0.605c-1.042-0.075-2.083-0.159-3.126-0.247c-0.451-0.037-0.902-0.076-1.352-0.115
			c-4.393-0.399-8.784-0.914-13.169-1.556l59.69-59.691c1.626-1.627,4.094-2.018,6.143-0.972l75.263,38.349
			C341.106,481.333,318.544,488.571,295.4,492.413z M425.447,425.442c-13.928,13.928-29.273,25.924-45.705,35.867l-85.228-43.427
			c-1.579-0.804-3.219-1.399-4.885-1.792l-9.951-62.838c1.461-0.888,2.845-1.937,4.096-3.188l66.301-66.301
			c1.253-1.253,2.325-2.628,3.215-4.092l62.811,9.948c0.393,1.666,0.988,3.306,1.793,4.884l43.426,85.228
			C451.374,396.165,439.378,411.512,425.447,425.442z M493.146,290.723c-0.082,0.562-0.165,1.126-0.251,1.688
			c-0.153,1.008-0.318,2.014-0.484,3.018c-3.843,23.13-11.078,45.677-21.608,66.916l-38.347-75.262
			c-1.044-2.047-0.653-4.517,0.973-6.143l59.685-59.684c0.641,4.379,1.156,8.764,1.554,13.151c0.041,0.469,0.082,0.938,0.121,1.408
			c0.087,1.023,0.17,2.046,0.243,3.07c0.397,5.666,0.606,11.37,0.606,17.105C495.638,267.718,494.792,279.318,493.146,290.723z"/>
	</g>
</g>
<g>
</g>
<g>
</g>
<g>
</g>
<g>
</g>
<g>
</g>
<g>
</g>
<g>
</g>
<g>
</g>
<g>
</g>
<g>
</g>
<g>
</g>
<g>
</g>
<g>
</g>
<g>
</g>
<g>
</g>
</svg>
